   0
SECTION
   2
ENTITIES
   0
LINE
8
0
  10
   0.000
  20
   0.000
  11
   0.040
  21
   0.295
   0
LINE
8
0
  10
   0.040
  20
   0.295
  11
   0.162
  21
   0.583
   0
LINE
8
0
  10
   0.162
  20
   0.583
  11
   0.363
  21
   0.865
   0
LINE
8
0
  10
   0.363
  20
   0.865
  11
   0.645
  21
   1.140
   0
LINE
8
0
  10
   0.645
  20
   1.140
  11
   1.005
  21
   1.407
   0
LINE
8
0
  10
   1.005
  20
   1.407
  11
   1.445
  21
   1.666
   0
LINE
8
0
  10
   1.445
  20
   1.666
  11
   1.961
  21
   1.916
   0
LINE
8
0
  10
   1.961
  20
   1.916
  11
   2.554
  21
   2.156
   0
LINE
8
0
  10
   2.554
  20
   2.156
  11
   3.222
  21
   2.386
   0
LINE
8
0
  10
   3.222
  20
   2.386
  11
   3.963
  21
   2.605
   0
LINE
8
0
  10
   3.963
  20
   2.605
  11
   4.776
  21
   2.812
   0
LINE
8
0
  10
   4.776
  20
   2.812
  11
   5.658
  21
   3.006
   0
LINE
8
0
  10
   5.658
  20
   3.006
  11
   6.608
  21
   3.187
   0
LINE
8
0
  10
   6.608
  20
   3.187
  11
   7.623
  21
   3.353
   0
LINE
8
0
  10
   7.623
  20
   3.353
  11
   8.702
  21
   3.505
   0
LINE
8
0
  10
   8.702
  20
   3.505
  11
   9.840
  21
   3.642
   0
LINE
8
0
  10
   9.840
  20
   3.642
  11
  11.037
  21
   3.763
   0
LINE
8
0
  10
  11.037
  20
   3.763
  11
  12.288
  21
   3.867
   0
LINE
8
0
  10
  12.288
  20
   3.867
  11
  13.592
  21
   3.956
   0
LINE
8
0
  10
  13.592
  20
   3.956
  11
  14.945
  21
   4.028
   0
LINE
8
0
  10
  14.945
  20
   4.028
  11
  16.344
  21
   4.083
   0
LINE
8
0
  10
  16.344
  20
   4.083
  11
  17.785
  21
   4.123
   0
LINE
8
0
  10
  17.785
  20
   4.123
  11
  19.265
  21
   4.146
   0
LINE
8
0
  10
  19.265
  20
   4.146
  11
  20.782
  21
   4.153
   0
LINE
8
0
  10
  20.782
  20
   4.153
  11
  22.331
  21
   4.145
   0
LINE
8
0
  10
  22.331
  20
   4.145
  11
  23.908
  21
   4.123
   0
LINE
8
0
  10
  23.908
  20
   4.123
  11
  25.510
  21
   4.086
   0
LINE
8
0
  10
  25.510
  20
   4.086
  11
  27.134
  21
   4.035
   0
LINE
8
0
  10
  27.134
  20
   4.035
  11
  28.775
  21
   3.972
   0
LINE
8
0
  10
  28.775
  20
   3.972
  11
  30.429
  21
   3.897
   0
LINE
8
0
  10
  30.429
  20
   3.897
  11
  32.094
  21
   3.811
   0
LINE
8
0
  10
  32.094
  20
   3.811
  11
  33.764
  21
   3.715
   0
LINE
8
0
  10
  33.764
  20
   3.715
  11
  35.436
  21
   3.610
   0
LINE
8
0
  10
  35.436
  20
   3.610
  11
  37.106
  21
   3.496
   0
LINE
8
0
  10
  37.106
  20
   3.496
  11
  38.770
  21
   3.374
   0
LINE
8
0
  10
  38.770
  20
   3.374
  11
  40.425
  21
   3.246
   0
LINE
8
0
  10
  40.425
  20
   3.246
  11
  42.066
  21
   3.113
   0
LINE
8
0
  10
  42.066
  20
   3.113
  11
  43.690
  21
   2.974
   0
LINE
8
0
  10
  43.690
  20
   2.974
  11
  45.292
  21
   2.831
   0
LINE
8
0
  10
  45.292
  20
   2.831
  11
  46.869
  21
   2.686
   0
LINE
8
0
  10
  46.869
  20
   2.686
  11
  48.418
  21
   2.538
   0
LINE
8
0
  10
  48.418
  20
   2.538
  11
  49.934
  21
   2.388
   0
LINE
8
0
  10
  49.934
  20
   2.388
  11
  51.415
  21
   2.237
   0
LINE
8
0
  10
  51.415
  20
   2.237
  11
  52.856
  21
   2.086
   0
LINE
8
0
  10
  52.856
  20
   2.086
  11
  54.255
  21
   1.936
   0
LINE
8
0
  10
  54.255
  20
   1.936
  11
  55.608
  21
   1.788
   0
LINE
8
0
  10
  55.608
  20
   1.788
  11
  56.912
  21
   1.641
   0
LINE
8
0
  10
  56.912
  20
   1.641
  11
  58.163
  21
   1.497
   0
LINE
8
0
  10
  58.163
  20
   1.497
  11
  59.360
  21
   1.357
   0
LINE
8
0
  10
  59.360
  20
   1.357
  11
  60.498
  21
   1.220
   0
LINE
8
0
  10
  60.498
  20
   1.220
  11
  61.577
  21
   1.089
   0
LINE
8
0
  10
  61.577
  20
   1.089
  11
  62.592
  21
   0.963
   0
LINE
8
0
  10
  62.592
  20
   0.963
  11
  63.542
  21
   0.843
   0
LINE
8
0
  10
  63.542
  20
   0.843
  11
  64.424
  21
   0.730
   0
LINE
8
0
  10
  64.424
  20
   0.730
  11
  65.237
  21
   0.624
   0
LINE
8
0
  10
  65.237
  20
   0.624
  11
  65.978
  21
   0.527
   0
LINE
8
0
  10
  65.978
  20
   0.527
  11
  66.646
  21
   0.438
   0
LINE
8
0
  10
  66.646
  20
   0.438
  11
  67.239
  21
   0.358
   0
LINE
8
0
  10
  67.239
  20
   0.358
  11
  67.755
  21
   0.287
   0
LINE
8
0
  10
  67.755
  20
   0.287
  11
  68.195
  21
   0.227
   0
LINE
8
0
  10
  68.195
  20
   0.227
  11
  68.555
  21
   0.177
   0
LINE
8
0
  10
  68.555
  20
   0.177
  11
  68.837
  21
   0.138
   0
LINE
8
0
  10
  68.837
  20
   0.138
  11
  69.038
  21
   0.110
   0
LINE
8
0
  10
  69.038
  20
   0.110
  11
  69.160
  21
   0.093
   0
LINE
8
0
  10
  69.160
  20
   0.093
  11
  69.200
  21
   0.087
   0
LINE
8
0
  10
  69.200
  20
   0.087
  11
   0.000
  21
   0.000
   0
LINE
8
0
  10
   0.000
  20
   0.000
  11
   0.040
  21
  -0.295
   0
LINE
8
0
  10
   0.040
  20
  -0.295
  11
   0.162
  21
  -0.583
   0
LINE
8
0
  10
   0.162
  20
  -0.583
  11
   0.363
  21
  -0.865
   0
LINE
8
0
  10
   0.363
  20
  -0.865
  11
   0.645
  21
  -1.140
   0
LINE
8
0
  10
   0.645
  20
  -1.140
  11
   1.005
  21
  -1.407
   0
LINE
8
0
  10
   1.005
  20
  -1.407
  11
   1.445
  21
  -1.666
   0
LINE
8
0
  10
   1.445
  20
  -1.666
  11
   1.961
  21
  -1.916
   0
LINE
8
0
  10
   1.961
  20
  -1.916
  11
   2.554
  21
  -2.156
   0
LINE
8
0
  10
   2.554
  20
  -2.156
  11
   3.222
  21
  -2.386
   0
LINE
8
0
  10
   3.222
  20
  -2.386
  11
   3.963
  21
  -2.605
   0
LINE
8
0
  10
   3.963
  20
  -2.605
  11
   4.776
  21
  -2.812
   0
LINE
8
0
  10
   4.776
  20
  -2.812
  11
   5.658
  21
  -3.006
   0
LINE
8
0
  10
   5.658
  20
  -3.006
  11
   6.608
  21
  -3.187
   0
LINE
8
0
  10
   6.608
  20
  -3.187
  11
   7.623
  21
  -3.353
   0
LINE
8
0
  10
   7.623
  20
  -3.353
  11
   8.702
  21
  -3.505
   0
LINE
8
0
  10
   8.702
  20
  -3.505
  11
   9.840
  21
  -3.642
   0
LINE
8
0
  10
   9.840
  20
  -3.642
  11
  11.037
  21
  -3.763
   0
LINE
8
0
  10
  11.037
  20
  -3.763
  11
  12.288
  21
  -3.867
   0
LINE
8
0
  10
  12.288
  20
  -3.867
  11
  13.592
  21
  -3.956
   0
LINE
8
0
  10
  13.592
  20
  -3.956
  11
  14.945
  21
  -4.028
   0
LINE
8
0
  10
  14.945
  20
  -4.028
  11
  16.344
  21
  -4.083
   0
LINE
8
0
  10
  16.344
  20
  -4.083
  11
  17.785
  21
  -4.123
   0
LINE
8
0
  10
  17.785
  20
  -4.123
  11
  19.265
  21
  -4.146
   0
LINE
8
0
  10
  19.265
  20
  -4.146
  11
  20.782
  21
  -4.153
   0
LINE
8
0
  10
  20.782
  20
  -4.153
  11
  22.331
  21
  -4.145
   0
LINE
8
0
  10
  22.331
  20
  -4.145
  11
  23.908
  21
  -4.123
   0
LINE
8
0
  10
  23.908
  20
  -4.123
  11
  25.510
  21
  -4.086
   0
LINE
8
0
  10
  25.510
  20
  -4.086
  11
  27.134
  21
  -4.035
   0
LINE
8
0
  10
  27.134
  20
  -4.035
  11
  28.775
  21
  -3.972
   0
LINE
8
0
  10
  28.775
  20
  -3.972
  11
  30.429
  21
  -3.897
   0
LINE
8
0
  10
  30.429
  20
  -3.897
  11
  32.094
  21
  -3.811
   0
LINE
8
0
  10
  32.094
  20
  -3.811
  11
  33.764
  21
  -3.715
   0
LINE
8
0
  10
  33.764
  20
  -3.715
  11
  35.436
  21
  -3.610
   0
LINE
8
0
  10
  35.436
  20
  -3.610
  11
  37.106
  21
  -3.496
   0
LINE
8
0
  10
  37.106
  20
  -3.496
  11
  38.770
  21
  -3.374
   0
LINE
8
0
  10
  38.770
  20
  -3.374
  11
  40.425
  21
  -3.246
   0
LINE
8
0
  10
  40.425
  20
  -3.246
  11
  42.066
  21
  -3.113
   0
LINE
8
0
  10
  42.066
  20
  -3.113
  11
  43.690
  21
  -2.974
   0
LINE
8
0
  10
  43.690
  20
  -2.974
  11
  45.292
  21
  -2.831
   0
LINE
8
0
  10
  45.292
  20
  -2.831
  11
  46.869
  21
  -2.686
   0
LINE
8
0
  10
  46.869
  20
  -2.686
  11
  48.418
  21
  -2.538
   0
LINE
8
0
  10
  48.418
  20
  -2.538
  11
  49.934
  21
  -2.388
   0
LINE
8
0
  10
  49.934
  20
  -2.388
  11
  51.415
  21
  -2.237
   0
LINE
8
0
  10
  51.415
  20
  -2.237
  11
  52.856
  21
  -2.086
   0
LINE
8
0
  10
  52.856
  20
  -2.086
  11
  54.255
  21
  -1.936
   0
LINE
8
0
  10
  54.255
  20
  -1.936
  11
  55.608
  21
  -1.788
   0
LINE
8
0
  10
  55.608
  20
  -1.788
  11
  56.912
  21
  -1.641
   0
LINE
8
0
  10
  56.912
  20
  -1.641
  11
  58.163
  21
  -1.497
   0
LINE
8
0
  10
  58.163
  20
  -1.497
  11
  59.360
  21
  -1.357
   0
LINE
8
0
  10
  59.360
  20
  -1.357
  11
  60.498
  21
  -1.220
   0
LINE
8
0
  10
  60.498
  20
  -1.220
  11
  61.577
  21
  -1.089
   0
LINE
8
0
  10
  61.577
  20
  -1.089
  11
  62.592
  21
  -0.963
   0
LINE
8
0
  10
  62.592
  20
  -0.963
  11
  63.542
  21
  -0.843
   0
LINE
8
0
  10
  63.542
  20
  -0.843
  11
  64.424
  21
  -0.730
   0
LINE
8
0
  10
  64.424
  20
  -0.730
  11
  65.237
  21
  -0.624
   0
LINE
8
0
  10
  65.237
  20
  -0.624
  11
  65.978
  21
  -0.527
   0
LINE
8
0
  10
  65.978
  20
  -0.527
  11
  66.646
  21
  -0.438
   0
LINE
8
0
  10
  66.646
  20
  -0.438
  11
  67.239
  21
  -0.358
   0
LINE
8
0
  10
  67.239
  20
  -0.358
  11
  67.755
  21
  -0.287
   0
LINE
8
0
  10
  67.755
  20
  -0.287
  11
  68.195
  21
  -0.227
   0
LINE
8
0
  10
  68.195
  20
  -0.227
  11
  68.555
  21
  -0.177
   0
LINE
8
0
  10
  68.555
  20
  -0.177
  11
  68.837
  21
  -0.138
   0
LINE
8
0
  10
  68.837
  20
  -0.138
  11
  69.038
  21
  -0.110
   0
LINE
8
0
  10
  69.038
  20
  -0.110
  11
  69.160
  21
  -0.093
   0
LINE
8
0
  10
  69.160
  20
  -0.093
  11
  69.200
  21
  -0.087
   0
ENDSEC
   0
EOF
